<svg enable-background="new 0 0 328 331" viewBox="0 0 328 331" xmlns="http://www.w3.org/2000/svg"><path d="m2.3 93.3h10.4c6 0 9.1 3.4 9.1 10.1 0 6.4-3.2 9.6-9.5 9.6h-3.5v15.8h-6.5zm8.9 15.1c1.8 0 2.9-.4 3.6-1.1.6-.7.9-2.1.9-4 0-1.4-.1-2.5-.3-3.2s-.6-1.3-1.2-1.7-1.6-.6-2.9-.6h-2.6v10.6z"/><path d="m27.5 93.3h6.4v14.8h7.2v-14.8h6.5v35.5h-6.5v-16h-7.2v16h-6.4z"/><path d="m54.3 93.3h10.4c6 0 9.1 3.4 9.1 10.1 0 6.4-3.2 9.6-9.5 9.6h-3.5v15.8h-6.4zm8.9 15.1c1.8 0 2.9-.4 3.6-1.1.6-.7.9-2.1.9-4 0-1.4-.1-2.5-.3-3.2s-.6-1.3-1.2-1.7-1.6-.6-2.9-.6h-2.5v10.6z"/><path d="m94.1 126.1c-1.5-2.1-2.3-5-2.3-8.7v-12.7c0-3.9.8-6.8 2.3-8.8s4.1-3 7.8-3c3.5 0 5.9.9 7.4 2.6s2.2 4.3 2.2 7.6v3h-6.2v-3.1c0-1.2-.1-2.2-.2-3-.1-.7-.4-1.3-.9-1.8s-1.2-.7-2.2-.7c-1.1 0-1.8.2-2.4.7-.5.5-.9 1.1-1 1.9-.2.8-.2 1.8-.2 3.1v15.4c0 2 .3 3.5.8 4.4s1.5 1.3 2.8 1.3c1 0 1.7-.2 2.2-.7s.8-1.1.9-1.9.2-1.8.2-3.1v-3.2h6.2v2.8c0 3.4-.7 6.1-2.2 7.9-1.4 1.9-3.9 2.8-7.4 2.8-3.7.3-6.3-.7-7.8-2.8z"/><path d="m119.7 126.2c-1.6-2-2.4-4.8-2.4-8.7v-13.3c0-3.8.8-6.6 2.4-8.5s4.2-2.9 7.9-2.9 6.3 1 7.8 2.9 2.4 4.8 2.4 8.5v13.3c0 3.8-.8 6.6-2.4 8.6s-4.2 3-7.8 3c-3.7.1-6.4-.9-7.9-2.9zm10.7-3.1c.5-.9.7-2.2.7-3.9v-16.3c0-1.7-.2-3-.7-3.9s-1.4-1.3-2.9-1.3-2.4.4-2.9 1.3-.7 2.2-.7 3.9v16.3c0 1.7.2 3 .7 3.9s1.5 1.4 2.9 1.4c1.5-.1 2.4-.5 2.9-1.4z"/><path d="m144 93.3h4.5l8.6 20.2v-20.2h5.3v35.5h-4.3l-8.7-21.2v21.2h-5.4z"/><path d="m169.1 93.3h14.6v4.5h-8.1v10.3h6.7v4.5h-6.7v16.2h-6.4v-35.5z"/><path d="m189.3 93.3h14.9v4.6h-8.4v10.1h6.7v4.5h-6.7v11.8h8.5v4.4h-15z"/><path d="m210 93.3h8.5c3.7 0 6.5.7 8.4 2.1 1.8 1.4 2.8 3.8 2.8 7.3 0 2.2-.3 4.1-1 5.5s-1.8 2.4-3.4 3.1l4.9 17.5h-6.5l-4.2-16.2h-3.1v16.2h-6.4zm8.5 15.1c1.8 0 3.1-.4 3.9-1.3.8-.8 1.2-2.2 1.2-4.2 0-1.9-.3-3.2-1-4.1s-1.9-1.3-3.7-1.3h-2.4v10.8z"/><path d="m236.2 93.3h14.9v4.6h-8.4v10.1h6.6v4.5h-6.6v11.8h8.5v4.4h-15z"/><path d="m256.9 93.3h4.5l8.6 20.2v-20.2h5.3v35.5h-4.3l-8.7-21.2v21.2h-5.5z"/><path d="m284 126.1c-1.5-2.1-2.3-5-2.3-8.7v-12.7c0-3.9.8-6.8 2.3-8.8s4.1-3 7.8-3c3.5 0 5.9.9 7.4 2.6s2.2 4.3 2.2 7.6v3h-6.2v-3.1c0-1.2-.1-2.2-.2-3-.1-.7-.4-1.3-.9-1.8-.5-.4-1.2-.7-2.2-.7s-1.8.2-2.4.7c-.5.5-.9 1.1-1 1.9-.2.8-.2 1.8-.2 3.1v15.4c0 2 .3 3.5.8 4.4s1.5 1.3 2.9 1.3c1 0 1.7-.2 2.2-.7s.8-1.1.9-1.9.2-1.8.2-3.1v-3.2h6.2v2.8c0 3.4-.7 6.1-2.1 7.9-1.4 1.9-3.9 2.8-7.4 2.8-3.9.3-6.5-.7-8-2.8z"/><path d="m307.5 93.3h14.9v4.6h-8.5v10.1h6.6v4.5h-6.6v11.8h8.5v4.4h-15z"/><path d="m2.3 155.3h14.6v4.5h-8.1v10.3h6.7v4.5h-6.7v16.2h-6.5z"/><path d="m25.4 189.8c-1.5-.9-2.5-2.3-3.1-4s-.9-3.9-.9-6.6v-24h6.3v24.8c0 2 .2 3.6.7 4.7s1.5 1.7 3 1.7 2.5-.6 3-1.7.7-2.7.7-4.7v-24.7h6.3v24c0 2.6-.3 4.8-.9 6.6-.6 1.7-1.6 3.1-3.1 4s-3.5 1.4-6 1.4c-2.5-.1-4.5-.5-6-1.5z"/><path d="m47 155.3h6.4v15.6l7-15.6h6.2l-6.8 15.8 7.5 19.7h-6.3l-6-16.2-1.6 2.7v13.4h-6.4z"/><path d="m74.7 189.8c-1.5-.9-2.5-2.3-3.1-4s-.9-3.9-.9-6.6v-24h6.3v24.8c0 2 .2 3.6.7 4.7s1.5 1.7 3 1.7 2.5-.6 3-1.7.7-2.7.7-4.7v-24.7h6.3v24c0 2.6-.3 4.8-.9 6.6-.6 1.7-1.6 3.1-3.1 4s-3.5 1.4-6 1.4c-2.5-.1-4.5-.5-6-1.5z"/><path d="m98.3 188.3c-1.6-2-2.4-4.9-2.4-8.6v-13.3c0-3.8.8-6.6 2.4-8.5s4.2-2.9 7.9-2.9 6.3 1 7.8 2.9c1.6 1.9 2.4 4.8 2.4 8.5v13.3c0 3.8-.8 6.6-2.4 8.6s-4.2 3-7.8 3c-3.7-.1-6.3-1.1-7.9-3zm10.8-3.2c.5-.9.7-2.2.7-3.9v-16.3c0-1.7-.2-3-.7-3.9s-1.4-1.3-2.9-1.3-2.4.4-2.9 1.3-.7 2.2-.7 3.9v16.3c0 1.7.2 3 .7 3.9s1.5 1.4 2.9 1.4 2.4-.5 2.9-1.4z"/><path d="m121.8 155.3h6.4v15.6l7.1-15.6h6.2l-6.8 15.8 7.5 19.7h-6.4l-5.9-16.1-1.6 2.7v13.4h-6.4z"/><path d="m152.8 155.3h6.9l7.1 35.5h-6l-1.4-8.2h-6.2l-1.4 8.2h-6.1zm5.9 23.1-2.4-14.9-2.4 14.9z"/><path d="m182.8 186.5 8.8-13.5c.1-.2.3-.4.4-.6s.2-.3.3-.5c1.1-1.6 1.8-3 2.3-4.1s.7-2.3.7-3.7c0-2.7-1-4.1-2.9-4.1-1.3 0-2.2.5-2.8 1.5s-.8 2.4-.8 4.1v1.5h-5.9v-1.6c0-3.3.8-5.9 2.2-7.8s3.9-2.8 7.1-2.8c3 0 5.2.8 6.8 2.4s2.3 3.9 2.3 6.8c0 1.8-.3 3.4-.9 4.8s-1.6 3.1-2.9 5.2l-.5.8-7.3 11h10.8v4.9h-17.6z"/><path d="m208.6 188.5c-1.6-1.9-2.4-4.4-2.4-7.5v-15.7c0-3.2.8-5.8 2.3-7.6s3.8-2.8 7-2.8c3.1 0 5.4.9 6.9 2.8s2.3 4.4 2.3 7.6v15.7c0 3.1-.8 5.6-2.4 7.5s-3.9 2.8-6.9 2.8-5.3-1-6.8-2.8zm10-7.6v-15.5c0-1.6-.2-2.8-.6-3.8s-1.2-1.5-2.5-1.5-2.1.5-2.5 1.5-.6 2.2-.6 3.8v15.5c0 1.4.2 2.6.7 3.7.4 1 1.3 1.5 2.4 1.5 2 0 3.1-1.8 3.1-5.2z"/><path d="m234.9 162c-.3.2-1.4.5-3.2 1-1.5.4-2.2.7-2.3.7v-4.5c1.2-.4 2.4-1 3.8-1.7s2.4-1.4 3-2.2h4.7v35.5h-6.1z"/><path d="m249.6 189c-1.4-1.5-2.1-3.7-2.2-6.7v-.5h5.8c0 1.7.2 2.9.6 3.6s1.2 1.1 2.5 1.1c1.1 0 1.9-.6 2.4-1.6.5-1.1.7-3 .7-5.7v-4.2c-.4.7-1 1.2-1.9 1.6s-1.9.6-3 .6c-5 0-7.4-3.5-7.4-10.4 0-3.7.7-6.6 2.2-8.7s3.8-3.1 7-3.1c3.1 0 5.5 1 7 3.1s2.3 4.8 2.3 8.3v12.6c0 3.9-.7 6.9-2.1 9.1s-3.8 3.3-7.2 3.3c-3.1-.2-5.3-.9-6.7-2.4zm9.8-18.4v-5.5c0-1.7-.2-3.1-.7-4.1s-1.3-1.5-2.4-1.5c-1.2 0-2 .5-2.4 1.6s-.7 2.6-.7 4.7c0 1.6.1 2.9.1 3.7.1.9.4 1.6.8 2.2s1.2.8 2.2.8c1.3 0 2.3-.6 3.1-1.9z"/><path d="m3.6 218.8h-3.6v-3h11.2v3h-3.5v19.5h-4.1z"/><path d="m14.6 215.8h3.8v8c1.2-1.2 2.5-1.8 4-1.8.9 0 1.6.3 2 1s.6 1.5.6 2.5v12.8h-3.8v-12c0-.5-.1-.9-.2-1.1s-.4-.4-.9-.4-1.1.3-1.8.8v12.7h-3.8v-22.5z"/><path d="m30.4 238c-.5-.4-.9-.9-1.2-1.4-.3-.6-.4-1.2-.4-1.8 0-1.2.3-2.3.9-3.1s1.3-1.4 2.2-1.9c.9-.4 2-.9 3.4-1.5v-1.3c0-.7-.1-1.3-.3-1.6s-.5-.5-1-.5c-.8 0-1.3.6-1.3 1.8l-.1 1-3.6-.1c.1-1.9.5-3.2 1.4-4.1s2.2-1.3 3.9-1.3c1.6 0 2.7.4 3.5 1.3s1.1 2.1 1.1 3.7v7.4c0 1.1.1 2.5.3 3.9h-3.4c-.2-1-.3-1.8-.4-2.3-.2.7-.6 1.3-1.1 1.8s-1.2.7-2 .7c-.8-.1-1.4-.3-1.9-.7zm4.1-2.6c.3-.2.5-.5.7-.7v-4.5c-1 .6-1.7 1.1-2.2 1.7s-.7 1.2-.7 2c0 .6.1 1.1.3 1.4s.5.5 1 .5c.3 0 .6-.1.9-.4z"/><path d="m42.8 222.2h3.8v1.6c1.3-1.2 2.6-1.8 3.9-1.8.9 0 1.6.3 2 1s.7 1.5.7 2.5v12.8h-3.8v-12c0-.5-.1-.9-.2-1.1s-.4-.4-.8-.4-1 .3-1.8.8v12.8h-3.8z"/><path d="m57.2 215.8h3.8v13l4.1-6.5h4.1l-4 6.4 3.9 9.6h-4l-2.9-7.9-1.3 1.8v6.1h-3.8c.1 0 .1-22.5.1-22.5z"/><path d="m80.4 240c1 0 1.7-.1 2.1-.3s.6-.5.6-1c0-.3-.2-1.3-.6-2.8l-3.5-13.7h3.7l2.1 10.6 1.8-10.6h3.6l-3.7 16.8c-.3 1.4-.9 2.3-1.8 2.9s-2.1.9-3.6.9h-.7z"/><path d="m94.2 237.1c-.8-.9-1.3-2.3-1.3-4.2v-5.4c0-1.8.4-3.2 1.3-4.2.8-.9 2.1-1.4 3.9-1.4s3 .5 3.9 1.4c.9 1 1.3 2.3 1.3 4.2v5.4c0 1.8-.4 3.2-1.3 4.2s-2.2 1.4-3.9 1.4-3-.4-3.9-1.4zm5.1-1.8c.2-.4.3-1.1.3-2v-5.9c0-.9-.1-1.6-.3-2-.2-.5-.6-.7-1.1-.7-.6 0-1 .2-1.2.7s-.3 1.1-.3 2v5.9c0 .9.1 1.6.3 2s.6.7 1.2.7c.5 0 .9-.3 1.1-.7z"/><path d="m107.7 237.6c-.4-.7-.7-1.5-.7-2.5v-12.8h3.8v12.1c0 .5.1.9.2 1.1s.4.4.9.4c.4 0 1-.2 1.7-.8v-12.9h3.8v16.1h-3.8v-1.5c-1.2 1.2-2.5 1.8-3.9 1.8-.9 0-1.5-.4-2-1z"/><path d="m121.3 234.6h3.7v3.7h-3.7zm0-18.8h3.8l-1.3 17.2h-1.3z"/><path d="m138.5 236.9c-.8-1.1-1.2-2.8-1.2-5.1h3.8c0 1.3.1 2.2.4 2.9s.8 1 1.6 1c.6 0 1.1-.2 1.4-.6s.5-.9.6-1.6.1-1.6.1-2.8c0-1.5-.1-2.6-.4-3.3s-.9-1.1-1.7-1.1c-.5 0-1 .2-1.3.5s-.6.8-.8 1.4h-3.3l.2-12.5h10.1v3.4h-7l-.2 5.4c.3-.4.8-.6 1.4-.9.6-.2 1.2-.3 1.9-.3 1.6 0 2.8.6 3.6 1.8s1.1 2.9 1.1 5.1c0 1.7-.2 3.2-.5 4.4s-.9 2.1-1.8 2.8-2.1 1-3.6 1c-2.1.3-3.6-.3-4.4-1.5z"/><path d="m153.9 237.5c-.6-.7-.9-1.8-.9-3.1v-9.6h-1.6v-2.5h1.6v-4.8h3.8v4.8h2.4v2.5h-2.4v9.3c0 .5.1.9.4 1.2.2.2.6.4 1.1.4s.9 0 1.2-.1v2.9c-.7.1-1.6.2-2.4.2-1.6-.2-2.6-.5-3.2-1.2z"/><path d="m162.9 215.8h3.8v8c1.2-1.2 2.5-1.8 4-1.8.9 0 1.6.3 2 1s.6 1.5.6 2.5v12.8h-3.8v-12c0-.5-.1-.9-.2-1.1s-.4-.4-.9-.4-1.1.3-1.8.8v12.7h-3.8z"/><path d="m189.3 215.8h4.4l4.5 22.5h-3.8l-.9-5.2h-3.9l-.9 5.2h-3.9zm3.8 14.7-1.5-9.5-1.5 9.5z"/><path d="m201.7 222.2h3.8v1.6c1.3-1.2 2.6-1.8 3.9-1.8.9 0 1.6.3 2 1s.7 1.5.7 2.5v12.8h-3.8v-12c0-.5-.1-.9-.2-1.1s-.4-.4-.9-.4c-.4 0-1 .3-1.8.8v12.8h-3.8z"/><path d="m216.1 222.2h3.8v1.6c1.3-1.2 2.6-1.8 3.9-1.8.9 0 1.6.3 2 1s.7 1.5.7 2.5v12.8h-3.8v-12c0-.5-.1-.9-.2-1.1s-.4-.4-.9-.4c-.4 0-1 .3-1.8.8v12.8h-3.8z"/><path d="m230.6 216.6h3.8v3.1h-3.8zm0 5.6h3.8v16.1h-3.8z"/><path d="m237.7 222.2h3.7l1.6 11.5 1.6-11.5h3.6l-3.2 16.1h-4.2z"/><path d="m252.3 237.1c-.8-1-1.2-2.5-1.2-4.4v-4.8c0-2 .4-3.4 1.3-4.4.8-1 2.1-1.5 3.9-1.5s3.1.5 3.9 1.5 1.1 2.6 1.1 4.6v2.3h-6.4v3.2c0 .8.1 1.3.4 1.7.2.4.6.5 1.1.5s.8-.2 1-.5.3-.9.3-1.6v-1.4h3.6v1.1c0 1.6-.4 2.9-1.2 3.8s-2.1 1.3-3.7 1.3c-2 .1-3.3-.4-4.1-1.4zm5.3-8.5v-1.5c0-.8-.1-1.4-.3-1.8s-.6-.5-1.1-.5-.9.2-1.1.6-.3 1.1-.3 2.2v1.1z"/><path d="m265 222.2h3.8v2.5c.5-.9 1.1-1.6 1.6-2 .6-.4 1.2-.6 1.9-.6.2 0 .4 0 .6.1v3.9c-.6-.2-1.1-.3-1.6-.3-1 0-1.8.5-2.5 1.6v11.1h-3.8z"/><path d="m277.4 237.5c-.9-.7-1.5-1.8-1.9-3.2l2.8-1.1c.4 1.8 1.2 2.7 2.3 2.7.4 0 .8-.1 1-.3s.4-.5.4-.9-.1-.8-.4-1.2-.7-.8-1.4-1.4l-1.9-1.7c-.8-.7-1.4-1.3-1.8-1.9s-.6-1.4-.6-2.3c0-1.3.4-2.3 1.3-3s2-1.2 3.3-1.2 2.3.4 3.1 1.1 1.3 1.8 1.6 3.1l-2.5 1.1c-.1-.7-.4-1.4-.7-1.8-.3-.5-.8-.7-1.3-.7-.4 0-.7.1-.9.4-.2.2-.4.6-.4.9s.1.6.4.9.6.7 1.2 1.2l2 1.8c.8.7 1.5 1.4 1.9 2.1.5.7.7 1.4.7 2.4 0 1.4-.4 2.4-1.3 3.1s-2 1.1-3.4 1.1c-1.5-.1-2.6-.5-3.5-1.2z"/><path d="m290.4 238c-.5-.4-.9-.9-1.2-1.4-.3-.6-.4-1.2-.4-1.8 0-1.2.3-2.3.9-3.1s1.3-1.4 2.2-1.9 2-.9 3.4-1.5v-1.3c0-.7-.1-1.3-.3-1.6s-.5-.5-1-.5c-.9 0-1.3.6-1.3 1.8l-.1 1-3.6-.1c.1-1.9.5-3.2 1.4-4.1s2.2-1.3 3.9-1.3c1.6 0 2.8.4 3.5 1.3.8.9 1.1 2.1 1.1 3.7v7.4c0 1.1.1 2.5.3 3.9h-3.4c-.2-1-.3-1.8-.4-2.3-.2.7-.6 1.3-1.1 1.8s-1.2.7-2 .7c-.8-.1-1.4-.3-1.9-.7zm4.1-2.6c.3-.2.5-.5.7-.7v-4.5c-1 .6-1.7 1.1-2.2 1.7s-.7 1.2-.7 2c0 .6.1 1.1.4 1.4.2.3.5.5 1 .5.2 0 .5-.1.8-.4z"/><path d="m302.9 222.2h3.8v2.5c.5-.9 1.1-1.6 1.6-2 .6-.4 1.2-.6 1.9-.6.2 0 .4 0 .6.1v3.9c-.6-.2-1.1-.3-1.6-.3-1 0-1.8.5-2.5 1.6v11.1h-3.8z"/><path d="m314.9 240c1 0 1.7-.1 2.1-.3s.6-.5.6-1c0-.3-.2-1.3-.6-2.8l-3.5-13.6h3.7l2.1 10.6 1.8-10.6h3.6l-3.7 16.7c-.3 1.4-.9 2.3-1.8 2.9s-2.1.9-3.6.9h-.7z"/><path d="m322.5 207.3-15.3-1.4c-1.3-.3-2.3-1.2-2.5-2.5l-.1-.5c-1.2-5.4-2.1-10.8-3-16.2v-.4c-.3-3.1-.7-6.2-.7-9.3l-.1-4.7c0-.8.2-1.6.6-2.3.3-.8 1-1.6 3.1-2.3 1.4-.5 2.9-.5 4.2 0 2.2.8 2.9 1.6 3.1 2.3.4.8.5 1.6.6 2.3l-.1 4.7c0 3.1-.4 6.2-.7 9.3v-.3c0 5.5.1 11-.2 16.4l-2.7-2.9 14.9 4.1c1 .3 1.6 1.3 1.3 2.4-.6.8-1.5 1.4-2.4 1.3z"/><path d="m285.5 161.5 10 8-3.3-.8 13.1-4.3c.6-.2 1.2-.2 1.7-.1l14.2 3.1.4.1c.8.2 1.5.8 1.7 1.5l3.7 9.5c.4.9-.1 2-1 2.4-.8.3-1.7 0-2.2-.6l-6-8.3 2.1 1.6-14.3-2.7 1.7-.1-13.1 4.1-.4.1c-1.1.4-2.3 0-3-.9l-8.2-9.8c-.7-.9-.6-2.1.3-2.8.8-.6 1.9-.6 2.6 0z"/><path d="m276.2 194.8 11.9-9.8c.4-.3.8-.4 1.2-.5l.4-.1 16.2-3-4.5 4.9c-.5-3.1-.6-6.2-.7-9.3l-.2-4.7c0-.8.2-1.6.6-2.3.3-.8 1-1.6 3.1-2.3 1.4-.5 2.9-.5 4.2 0 2.2.8 2.9 1.6 3.1 2.3.4.8.5 1.6.6 2.3l-.1 4.7c-.1 3.1-.3 6.2-.7 9.3l-.2 1.2c-.3 2.2-2.2 3.7-4.3 3.7l-16.4-.2 1.6-.6-13.4 7.6c-1 .5-2.2.2-2.7-.7-.6-.9-.4-1.9.3-2.5z"/><circle cx="305.6" cy="157.3" r="5.5"/><path d="m299.5 155.7.9-.1c.5 0 .9.3 1 .7s-.3.9-.7.9c-.2 0-.4 0-.5-.1l-.8-.4c-.3-.1-.4-.5-.3-.8 0-.1.2-.2.4-.2z"/><path d="m293.8 159.4-15.7.8c-.4 0-.7-.3-.7-.7v-.6c0-.4.3-.7.7-.7l15.7-.3c.4 0 .7.3.7.7 0 .5-.3.8-.7.8z"/><path d="m272.3 142.7 2.7 17.2c.1.4.5.6.8.6l.6-.1c.4-.1.6-.5.6-.8l-3.3-17c-.1-.4-.5-.6-.8-.6-.4-.1-.7.3-.6.7z"/><path d="m72 16.8h-12.3c-1.1 0-2 .9-2 2v12.3c0 1.1.9 2 2 2h12.3c1.1 0 2-.9 2-2v-12.3c0-1.1-.9-2-2-2z" fill="#a4daf4"/><path d="m137.2 16.8h-12.2c-1.1 0-2 .9-2 2v12.3c0 1.1.9 2 2 2h12.3c1.1 0 2-.9 2-2v-12.3c0-1.1-.9-2-2.1-2z" fill="#a4daf4"/><path d="m202.5 16.8h-12.3c-1.1 0-2 .9-2 2v12.3c0 1.1.9 2 2 2h12.3c1.1 0 2-.9 2-2v-12.3c.1-1.1-.9-2-2-2z" fill="#a4daf4"/><path d="m55.7.5h-12.3c-1.1 0-2 .9-2 2v12.3c0 1.1.9 2 2 2h12.3c1.1 0 2-.9 2-2v-12.3c0-1.1-.9-2-2-2z" fill="#f3b1c4"/><path d="m186.2.5h-12.3c-1.1 0-2 .9-2 2v12.3c0 1.1.9 2 2 2h12.3c1.1 0 2-.9 2-2v-12.3c0-1.1-.9-2-2-2z" fill="#f3b1c4"/><path d="m120.9 33.1h-12.3c-1.1 0-2 .9-2 2v12.3c0 1.1.9 2 2 2h12.3c1.1 0 2-.9 2-2v-12.2c0-1.2-.8-2.1-2-2.1z" fill="#f3b1c4"/><path d="m284.1.5h-12.3c-1.1 0-2 .9-2 2v12.3c0 1.1.9 2 2 2h12.3c1.1 0 2-.9 2-2v-12.3c0-1.1-.9-2-2-2z" fill="#cedc48"/><path d="m88.3 33.1h-12.3c-1.1 0-2 .9-2 2v12.3c0 1.1.9 2 2 2h12.3c1.1 0 2-.9 2-2v-12.2c0-1.2-.9-2.1-2-2.1z" fill="#cedc48"/><path d="m251.5 33.1h-12.3c-1.1 0-2 .9-2 2v12.3c0 1.1.9 2 2 2h12.3c1.1 0 2-.9 2-2v-12.2c0-1.2-.9-2.1-2-2.1z" fill="#f3b1c4"/><path d="m153.6.5h-12.3c-1.1 0-2 .9-2 2v12.3c0 1.1.9 2 2 2h12.3c1.1 0 2-.9 2-2v-12.3c0-1.1-.9-2-2-2z" fill="#cedc48"/><path d="m218.9 33.1h-12.3c-1.1 0-2 .9-2 2v12.3c0 1.1.9 2 2 2h12.3c1.1 0 2-.9 2-2v-12.2c0-1.2-.9-2.1-2-2.1z" fill="#cedc48"/><path d="m104.6 16.8h-12.3c-1.1 0-2 .9-2 2v12.3c0 1.1.9 2 2 2h12.3c1.1 0 2-.9 2-2v-12.3c0-1.1-.9-2-2-2z" fill="#ffe100"/><path d="m267.8 16.8h-12.3c-1.1 0-2 .9-2 2v12.3c0 1.1.9 2 2 2h12.3c1.1 0 2-.9 2-2v-12.3c0-1.1-.9-2-2-2z" fill="#a4daf4"/><g fill="#ffe100"><path d="m169.9 16.8h-12.3c-1.1 0-2 .9-2 2v12.3c0 1.1.9 2 2 2h12.3c1.1 0 2-.9 2-2v-12.3c0-1.1-.9-2-2-2z"/><path d="m235.2 16.8h-12.3c-1.1 0-2 .9-2 2v12.3c0 1.1.9 2 2 2h12.3c1.1 0 2-.9 2-2v-12.3c0-1.1-.9-2-2-2z"/><path d="m300.5 16.8h-12.3c-1.1 0-2 .9-2 2v12.3c0 1.1.9 2 2 2h12.3c1.1 0 2-.9 2-2v-12.3c0-1.1-.9-2-2-2z"/><path d="m39.3 16.8h-12.3c-1.1 0-2 .9-2 2v12.3c0 1.1.9 2 2 2h12.3c1.1 0 2-.9 2-2v-12.3c0-1.1-.9-2-2-2z"/></g><path d="m255.5 313.8h12.3c1.1 0 2-.9 2-2v-12.3c0-1.1-.9-2-2-2h-12.3c-1.1 0-2 .9-2 2v12.3c0 1.1.9 2 2 2z" fill="#a4daf4"/><path d="m190.2 313.8h12.3c1.1 0 2-.9 2-2v-12.3c0-1.1-.9-2-2-2h-12.3c-1.1 0-2 .9-2 2v12.3c0 1.1.9 2 2 2z" fill="#a4daf4"/><path d="m125 313.8h12.3c1.1 0 2-.9 2-2v-12.3c0-1.1-.9-2-2-2h-12.3c-1.1 0-2 .9-2 2v12.3c-.1 1.1.8 2 2 2z" fill="#a4daf4"/><path d="m271.9 330.2h12.3c1.1 0 2-.9 2-2v-12.3c0-1.1-.9-2-2-2h-12.3c-1.1 0-2 .9-2 2v12.3c-.1 1.1.8 2 2 2z" fill="#f3b1c4"/><path d="m141.3 330.2h12.3c1.1 0 2-.9 2-2v-12.3c0-1.1-.9-2-2-2h-12.3c-1.1 0-2 .9-2 2v12.3c0 1.1.9 2 2 2z" fill="#f3b1c4"/><path d="m206.6 297.5h12.3c1.1 0 2-.9 2-2v-12.3c0-1.1-.9-2-2-2h-12.3c-1.1 0-2 .9-2 2v12.3c0 1.1.8 2 2 2z" fill="#f3b1c4"/><path d="m43.4 330.2h12.3c1.1 0 2-.9 2-2v-12.3c0-1.1-.9-2-2-2h-12.3c-1.1 0-2 .9-2 2v12.3c-.1 1.1.8 2 2 2z" fill="#cedc48"/><path d="m239.2 297.5h12.3c1.1 0 2-.9 2-2v-12.3c0-1.1-.9-2-2-2h-12.3c-1.1 0-2 .9-2 2v12.3c0 1.1.9 2 2 2z" fill="#cedc48"/><path d="m76 297.5h12.3c1.1 0 2-.9 2-2v-12.3c0-1.1-.9-2-2-2h-12.3c-1.1 0-2 .9-2 2v12.3c0 1.1.9 2 2 2z" fill="#f3b1c4"/><path d="m173.9 330.2h12.3c1.1 0 2-.9 2-2v-12.3c0-1.1-.9-2-2-2h-12.3c-1.1 0-2 .9-2 2v12.3c0 1.1.9 2 2 2z" fill="#cedc48"/><path d="m108.7 297.5h12.3c1.1 0 2-.9 2-2v-12.3c0-1.1-.9-2-2-2h-12.3c-1.1 0-2 .9-2 2v12.3c-.1 1.1.8 2 2 2z" fill="#cedc48"/><path d="m222.9 313.8h12.3c1.1 0 2-.9 2-2v-12.3c0-1.1-.9-2-2-2h-12.3c-1.1 0-2 .9-2 2v12.3c0 1.1.9 2 2 2z" fill="#ffe100"/><path d="m59.7 313.8h12.3c1.1 0 2-.9 2-2v-12.3c0-1.1-.9-2-2-2h-12.3c-1.1 0-2 .9-2 2v12.3c0 1.1.9 2 2 2z" fill="#a4daf4"/><path d="m157.6 313.8h12.3c1.1 0 2-.9 2-2v-12.3c0-1.1-.9-2-2-2h-12.3c-1.1 0-2 .9-2 2v12.3c0 1.1.9 2 2 2z" fill="#ffe100"/><path d="m92.3 313.8h12.3c1.1 0 2-.9 2-2v-12.3c0-1.1-.9-2-2-2h-12.3c-1.1 0-2 .9-2 2v12.3c0 1.1.9 2 2 2z" fill="#ffe100"/><path d="m27 313.8h12.3c1.1 0 2-.9 2-2v-12.3c0-1.1-.9-2-2-2h-12.3c-1.1 0-2 .9-2 2v12.3c0 1.1.9 2 2 2z" fill="#ffe100"/><path d="m288.2 313.8h12.3c1.1 0 2-.9 2-2v-12.3c0-1.1-.9-2-2-2h-12.3c-1.1 0-2 .9-2 2v12.3c-.1 1.1.8 2 2 2z" fill="#ffe100"/></svg>